<svg width="65" height="62" viewBox="0 0 65 62" fill="none" xmlns="http://www.w3.org/2000/svg">
<path d="M32.5 0C14.5469 0 0 13.8755 0 31C0 48.1245 14.5469 62 32.5 62C50.4531 62 65 48.1245 65 31C65 13.8755 50.4531 0 32.5 0ZM9.67188 49.2423C12.4531 48.0947 19.3906 45.7101 23.7812 44.488L23.7841 44.4871C24.1253 44.3836 24.1875 44.3647 24.1875 42.8933C24.1875 41.3135 24 40.1957 23.5938 39.376C23.0469 38.2582 22.3906 36.3654 22.1562 34.6663C21.5 33.9361 20.6094 32.5053 20.0312 29.763C19.5312 27.3486 19.7656 26.4692 20.0938 25.6495C20.1042 25.6197 20.1163 25.5899 20.1285 25.5601C20.1528 25.5005 20.1771 25.4409 20.1875 25.3813C20.3125 24.8298 20.1406 21.8788 19.7031 19.5986C19.4063 18.0337 19.7812 14.7101 22.0469 11.9529C23.4688 10.2091 26.2031 8.07788 31.1094 7.77981H33.8438C38.8281 8.07788 41.5625 10.2091 42.9844 11.9529C45.25 14.7101 45.625 18.0337 45.3125 19.5986C44.875 21.8788 44.7031 24.8149 44.8281 25.3813C44.8403 25.4507 44.8713 25.5202 44.8991 25.5827C44.9072 25.6006 44.9149 25.618 44.9219 25.6346C45.25 26.4543 45.5 27.3337 44.9844 29.7481C44.4062 32.4904 43.5156 33.9212 42.8594 34.6514C42.625 36.3505 41.9688 38.2284 41.4219 39.3611C40.9062 40.3894 40.3906 41.6115 40.3906 42.8337C40.3906 44.3059 40.4529 44.324 40.8101 44.4277L40.8125 44.4284C44.9844 45.6058 52.1719 47.9755 55.3438 49.2125C49.875 55.4423 41.6719 59.4216 32.5 59.4216C23.3438 59.4216 15.1406 55.4572 9.67188 49.2423Z" fill="#002B42"/>
<path d="M32.5 0C14.5469 0 0 13.8755 0 31C0 48.1245 14.5469 62 32.5 62C50.4531 62 65 48.1245 65 31C65 13.8755 50.4531 0 32.5 0ZM9.67188 49.2423C12.4531 48.0947 19.3906 45.7101 23.7812 44.488L23.7841 44.4871C24.1253 44.3836 24.1875 44.3647 24.1875 42.8933C24.1875 41.3135 24 40.1957 23.5938 39.376C23.0469 38.2582 22.3906 36.3654 22.1562 34.6663C21.5 33.9361 20.6094 32.5053 20.0312 29.763C19.5312 27.3486 19.7656 26.4692 20.0938 25.6495C20.1042 25.6197 20.1163 25.5899 20.1285 25.5601C20.1528 25.5005 20.1771 25.4409 20.1875 25.3813C20.3125 24.8298 20.1406 21.8788 19.7031 19.5986C19.4063 18.0337 19.7812 14.7101 22.0469 11.9529C23.4688 10.2091 26.2031 8.07788 31.1094 7.77981H33.8438C38.8281 8.07788 41.5625 10.2091 42.9844 11.9529C45.25 14.7101 45.625 18.0337 45.3125 19.5986C44.875 21.8788 44.7031 24.8149 44.8281 25.3813C44.8403 25.4507 44.8713 25.5202 44.8991 25.5827C44.9072 25.6006 44.9149 25.618 44.9219 25.6346C45.25 26.4543 45.5 27.3337 44.9844 29.7481C44.4062 32.4904 43.5156 33.9212 42.8594 34.6514C42.625 36.3505 41.9688 38.2284 41.4219 39.3611C40.9062 40.3894 40.3906 41.6115 40.3906 42.8337C40.3906 44.3059 40.4529 44.324 40.8101 44.4277L40.8125 44.4284C44.9844 45.6058 52.1719 47.9755 55.3438 49.2125C49.875 55.4423 41.6719 59.4216 32.5 59.4216C23.3438 59.4216 15.1406 55.4572 9.67188 49.2423Z" stroke="#B1C9EF"/>
</svg>
