<svg width="63" height="59" viewBox="0 0 63 59" fill="none" xmlns="http://www.w3.org/2000/svg">
<path d="M57.6846 0.377197H5.69921C2.82702 0.377197 0.500671 3.28513 0.500671 6.87537V52.3626C0.500671 55.9528 2.82702 58.8607 5.69921 58.8607H57.6846C60.5568 58.8607 62.8571 55.9528 62.8571 52.3626L62.8831 6.87537C62.8831 3.28513 60.5568 0.377197 57.6846 0.377197ZM21.2948 10.1245C25.5966 10.1245 29.0926 14.4945 29.0926 19.8717C29.0926 25.2652 25.5966 29.619 21.2948 29.619C16.993 29.619 13.497 25.2652 13.497 19.8717C13.497 14.4945 16.993 10.1245 21.2948 10.1245ZM5.69921 49.1135V45.8644C5.69921 39.3662 16.0963 35.7922 21.2948 35.7922C26.4934 35.7922 36.8904 39.3662 36.8904 45.8644V49.1135H5.69921ZM46.8976 36.1171H51.1604L55.0853 42.6153L49.8998 49.0972C46.5077 45.9131 43.9734 41.3807 42.8038 36.1171C42.3489 34.0377 42.089 31.8771 42.089 29.619C42.089 27.3609 42.3489 25.2002 42.8168 23.1208C43.9734 17.8573 46.5077 13.3248 49.9128 10.1407L55.0853 16.6226L51.1604 23.1208H46.8976C46.3258 25.1515 45.9879 27.3446 45.9879 29.619C45.9879 31.8933 46.3128 34.0865 46.8976 36.1171Z" fill="#002B42"/>
<path d="M57.6846 0.377197H5.69921C2.82702 0.377197 0.500671 3.28513 0.500671 6.87537V52.3626C0.500671 55.9528 2.82702 58.8607 5.69921 58.8607H57.6846C60.5568 58.8607 62.8571 55.9528 62.8571 52.3626L62.8831 6.87537C62.8831 3.28513 60.5568 0.377197 57.6846 0.377197ZM21.2948 10.1245C25.5966 10.1245 29.0926 14.4945 29.0926 19.8717C29.0926 25.2652 25.5966 29.619 21.2948 29.619C16.993 29.619 13.497 25.2652 13.497 19.8717C13.497 14.4945 16.993 10.1245 21.2948 10.1245ZM5.69921 49.1135V45.8644C5.69921 39.3662 16.0963 35.7922 21.2948 35.7922C26.4934 35.7922 36.8904 39.3662 36.8904 45.8644V49.1135H5.69921ZM46.8976 36.1171H51.1604L55.0853 42.6153L49.8998 49.0972C46.5077 45.9131 43.9734 41.3807 42.8038 36.1171C42.3489 34.0377 42.089 31.8771 42.089 29.619C42.089 27.3609 42.3489 25.2002 42.8168 23.1208C43.9734 17.8573 46.5077 13.3248 49.9128 10.1407L55.0853 16.6226L51.1604 23.1208H46.8976C46.3258 25.1515 45.9879 27.3446 45.9879 29.619C45.9879 31.8933 46.3128 34.0865 46.8976 36.1171Z" stroke="#B1C9EF"/>
</svg>
