<svg width="96" height="96" viewBox="0 0 96 96" fill="none" xmlns="http://www.w3.org/2000/svg">
<path d="M20 22C20 18.287 21.475 14.726 24.1005 12.1005C26.726 9.475 30.287 8 34 8H48V36H34C30.287 36 26.726 34.525 24.1005 31.8995C21.475 29.274 20 25.713 20 22Z" stroke="#DAE1F1" stroke-width="2" stroke-linecap="round" stroke-linejoin="round"/>
<path d="M48 8H62C63.8385 8 65.659 8.36212 67.3576 9.06569C69.0561 9.76925 70.5995 10.8005 71.8995 12.1005C73.1995 13.4005 74.2307 14.9439 74.9343 16.6424C75.6379 18.341 76 20.1615 76 22C76 23.8385 75.6379 25.659 74.9343 27.3576C74.2307 29.0561 73.1995 30.5995 71.8995 31.8995C70.5995 33.1995 69.0561 34.2307 67.3576 34.9343C65.659 35.6379 63.8385 36 62 36H48V8Z" stroke="#DAE1F1" stroke-width="2" stroke-linecap="round" stroke-linejoin="round"/>
<path d="M48 50C48 48.1615 48.3621 46.341 49.0657 44.6424C49.7693 42.9439 50.8005 41.4005 52.1005 40.1005C53.4005 38.8005 54.9439 37.7693 56.6424 37.0657C58.341 36.3621 60.1615 36 62 36C63.8385 36 65.659 36.3621 67.3576 37.0657C69.0561 37.7693 70.5995 38.8005 71.8995 40.1005C73.1995 41.4005 74.2307 42.9439 74.9343 44.6424C75.6379 46.341 76 48.1615 76 50C76 51.8385 75.6379 53.659 74.9343 55.3576C74.2307 57.0561 73.1995 58.5995 71.8995 59.8995C70.5995 61.1995 69.0561 62.2307 67.3576 62.9343C65.659 63.6379 63.8385 64 62 64C60.1615 64 58.341 63.6379 56.6424 62.9343C54.9439 62.2307 53.4005 61.1995 52.1005 59.8995C50.8005 58.5995 49.7693 57.0561 49.0657 55.3576C48.3621 53.659 48 51.8385 48 50Z" stroke="#DAE1F1" stroke-width="2" stroke-linecap="round" stroke-linejoin="round"/>
<path d="M20 78C20 74.287 21.475 70.726 24.1005 68.1005C26.726 65.475 30.287 64 34 64H48V78C48 81.713 46.525 85.274 43.8995 87.8995C41.274 90.525 37.713 92 34 92C30.287 92 26.726 90.525 24.1005 87.8995C21.475 85.274 20 81.713 20 78Z" stroke="#DAE1F1" stroke-width="2" stroke-linecap="round" stroke-linejoin="round"/>
<path d="M20 50C20 46.287 21.475 42.726 24.1005 40.1005C26.726 37.475 30.287 36 34 36H48V64H34C30.287 64 26.726 62.525 24.1005 59.8995C21.475 57.274 20 53.713 20 50Z" stroke="#DAE1F1" stroke-width="2" stroke-linecap="round" stroke-linejoin="round"/>
</svg>
