<svg width="118" height="83" viewBox="0 0 118 83" fill="none" xmlns="http://www.w3.org/2000/svg">
<g clip-path="url(#clip0_16_150)">
<path d="M118 0H0V83H118V0Z" fill="#00923F"/>
<path fill-rule="evenodd" clip-rule="evenodd" d="M59 10.0786L10.03 41.5L59 72.9215L107.97 41.5L59 10.0786Z" fill="#F8C300"/>
<path d="M58.9564 62.2071C70.3376 62.2071 79.5639 52.9361 79.5639 41.4998C79.5639 30.0635 70.3376 20.7925 58.9564 20.7925C47.5752 20.7925 38.3489 30.0635 38.3489 41.4998C38.3489 52.9361 47.5752 62.2071 58.9564 62.2071Z" fill="#28166F"/>
<path fill-rule="evenodd" clip-rule="evenodd" d="M61.045 45.9666L61.294 46.5986L61.9677 46.6413L61.4485 47.0753L61.6149 47.7334L61.045 47.3693L60.4739 47.7334L60.6414 47.0753L60.121 46.6413L60.7948 46.5986L61.045 45.9666ZM76.4511 48.1768L76.6635 48.7151L77.2381 48.7519L76.7944 49.1218L76.9372 49.6815L76.4511 49.372L75.9637 49.6815L76.1065 49.1218L75.664 48.7519L76.2387 48.7151L76.4511 48.1768ZM74.2456 49.8925L74.4958 50.5233L75.1696 50.5672L74.6492 51L74.8168 51.6581L74.2456 51.2952L73.6745 51.6581L73.8421 51L73.3217 50.5672L73.9967 50.5233L74.2456 49.8925ZM73.4279 47.6717L73.7241 48.4199L74.5229 48.4721L73.907 48.9855L74.1052 49.7645L73.4279 49.3341L72.7518 49.7645L72.95 48.9855L72.334 48.4721L73.1329 48.4199L73.4279 47.6717ZM73.2698 51.5395L73.5188 52.1703L74.1937 52.213L73.6733 52.647L73.8409 53.305L73.2698 52.941L72.6987 53.305L72.8662 52.647L72.3458 52.213L73.0196 52.1703L73.2698 51.5395ZM71.3405 52.5592L71.5529 53.0963L72.1275 53.1343L71.685 53.503L71.8278 54.0639L71.3405 53.7544L70.8543 54.0639L70.9971 53.503L70.5534 53.1343L71.1281 53.0963L71.3405 52.5592ZM69.3569 54.4125L69.6071 55.0433L70.2808 55.0872L69.7605 55.5199L69.928 56.178L69.3569 55.814L68.787 56.178L68.9533 55.5199L68.4341 55.0872L69.1079 55.0433L69.3569 54.4125ZM69.3333 56.7317L69.5457 57.2701L70.1204 57.3068L69.6779 57.6768L69.8206 58.2376L69.3333 57.9281L68.8471 58.2376L68.9899 57.6768L68.5462 57.3068L69.1209 57.2701L69.3333 56.7317ZM69.3014 52.5391L69.5138 53.0762L70.0885 53.1129L69.6448 53.4829L69.7876 54.0437L69.3014 53.7343L68.8141 54.0437L68.9569 53.4829L68.5132 53.1129L69.089 53.0762L69.3014 52.5391ZM66.8706 53.0193L67.0842 53.5576L67.6589 53.5943L67.2152 53.9643L67.358 54.5251L66.8706 54.2157L66.3845 54.5251L66.5273 53.9643L66.0836 53.5943L66.6582 53.5576L66.8706 53.0193ZM65.3119 33.1455L65.608 33.8937L66.4069 33.9447L65.7909 34.4581L65.9892 35.2371L65.3119 34.8067L64.6357 35.2371L64.834 34.4581L64.218 33.9447L65.0169 33.8937L65.3119 33.1455ZM64.9862 54.9152L65.2352 55.5472L65.9101 55.5899L65.3897 56.0239L65.5573 56.6808L64.9862 56.3179L64.4151 56.6808L64.5826 56.0239L64.0622 55.5899L64.736 55.5472L64.9862 54.9152ZM63.8392 39.4393L64.0528 39.9764L64.6275 40.0144L64.1838 40.3831L64.3266 40.944L63.8392 40.6345L63.3531 40.944L63.4958 40.3831L63.0522 40.0144L63.6268 39.9764L63.8392 39.4393ZM63.2929 52.4976L63.5053 53.0359L64.0799 53.0726L63.6374 53.4414L63.7802 54.0022L63.2929 53.6928L62.8067 54.0022L62.9495 53.4414L62.5058 53.0726L63.0805 53.0359L63.2929 52.4976ZM59.1558 44.1916L59.4048 44.8224L60.0797 44.8663L59.5594 45.2991L59.7269 45.9572L59.1558 45.5943L58.5847 45.9572L58.7522 45.2991L58.2319 44.8663L58.9056 44.8224L59.1558 44.1916ZM59.0354 50.0657L59.3304 50.8138L60.1305 50.8648L59.5133 51.3782L59.7116 52.1584L59.0354 51.728L58.3593 52.1584L58.5575 51.3782L57.9404 50.8648L58.7404 50.8138L59.0354 50.0657ZM59.1027 57.5558L59.216 57.8428L59.5228 57.8629L59.2868 58.0597L59.3623 58.3597L59.1027 58.1937L58.8431 58.3597L58.9186 58.0597L58.6826 57.8629L58.9894 57.8428L59.1027 57.5558ZM57.8012 47.6563L57.9605 48.0594L58.39 48.0867L58.0584 48.363L58.1658 48.7827L57.8012 48.5503L57.4377 48.7827L57.5439 48.363L57.2123 48.0867L57.643 48.0594L57.8012 47.6563ZM56.2955 46.3484L56.5079 46.8868L57.0825 46.9235L56.6389 47.2923L56.7816 47.8531L56.2955 47.5436L55.8081 47.8531L55.9509 47.2923L55.5072 46.9235L56.0831 46.8868L56.2955 46.3484ZM50.943 41.404L51.192 42.036L51.8658 42.0787L51.3466 42.5127L51.5129 43.1707L50.943 42.8067L50.3719 43.1707L50.5394 42.5127L50.0191 42.0787L50.6928 42.036L50.943 41.404ZM50.34 51.8632L50.635 52.6114L51.4351 52.6636L50.8179 53.177L51.0162 53.956L50.34 53.5256L49.6627 53.956L49.8621 53.177L49.245 52.6636L50.0438 52.6114L50.34 51.8632ZM48.0768 47.7345L48.3269 48.3653L49.0007 48.4092L48.4803 48.842L48.6479 49.5001L48.0768 49.1361L47.5068 49.5001L47.6732 48.842L47.154 48.4092L47.8278 48.3653L48.0768 47.7345ZM47.331 50.0609L47.5434 50.5992L48.1181 50.636L47.6744 51.0047L47.8172 51.5656L47.331 51.2561L46.8437 51.5656L46.9865 51.0047L46.5428 50.636L47.1174 50.5992L47.331 50.0609ZM45.7935 44.7691L45.9528 45.171L46.3823 45.1995L46.0507 45.4758L46.1581 45.8943L45.7935 45.6631L45.43 45.8943L45.5362 45.4758L45.2047 45.1995L45.6354 45.171L45.7935 44.7691ZM43.9019 45.6038L44.1969 46.352L44.997 46.403L44.3798 46.9164L44.5781 47.6966L43.9019 47.2662L43.2258 47.6966L43.424 46.9164L42.8069 46.403L43.6069 46.352L43.9019 45.6038ZM42.2039 36.9884L42.5001 37.7366L43.299 37.7876L42.683 38.301L42.8812 39.0812L42.2039 38.6508L41.5278 39.0812L41.726 38.301L41.1101 37.7876L41.9089 37.7366L42.2039 36.9884ZM41.739 47.5721L41.9892 48.2041L42.6629 48.2468L42.1426 48.6807L42.3101 49.3376L41.739 48.9748L41.1679 49.3376L41.3354 48.6807L40.8151 48.2468L41.49 48.2041L41.739 47.5721Z" fill="white"/>
<path fill-rule="evenodd" clip-rule="evenodd" d="M46.6536 35.1028C58.9114 35.1028 70.1486 39.6334 78.7944 47.1106C79.08 46.1027 79.2912 45.064 79.4222 44.0016C70.4577 36.6952 59.0495 32.3081 46.6536 32.3081C44.5048 32.3081 42.3855 32.4433 40.3028 32.6994C39.858 33.6539 39.4827 34.6463 39.1842 35.672C41.6209 35.2973 44.1154 35.1028 46.6536 35.1028Z" fill="white"/>
<path fill-rule="evenodd" clip-rule="evenodd" d="M41.3519 34.0277C41.3684 34.2305 41.4274 34.3834 41.5265 34.4878C41.6257 34.5921 41.7555 34.6372 41.9171 34.6241C42.0788 34.6099 42.2015 34.5435 42.2817 34.4226C42.3632 34.3028 42.3938 34.1415 42.3773 33.9388C42.3596 33.736 42.3006 33.5831 42.2015 33.4787C42.1012 33.3744 41.9702 33.3293 41.8074 33.3436C41.6457 33.3566 41.5254 33.4242 41.4451 33.5439C41.3661 33.6625 41.3342 33.8238 41.3519 34.0277ZM40.9672 34.0609C40.9413 33.7633 41.0026 33.5202 41.1489 33.3317C41.2953 33.1432 41.5053 33.0376 41.7791 33.0139C42.0528 32.9902 42.2782 33.059 42.4552 33.2191C42.6322 33.3803 42.7337 33.6092 42.7585 33.9056C42.7844 34.2032 42.7231 34.4463 42.5756 34.6348C42.4292 34.8233 42.218 34.93 41.9454 34.9538C41.6705 34.9775 41.4463 34.9087 41.2693 34.7474C41.0935 34.5862 40.992 34.3573 40.9672 34.0609ZM43.9597 33.7171L44.4046 33.7016C44.5013 33.6981 44.5709 33.6767 44.6158 33.6352C44.6594 33.5949 44.6795 33.5321 44.6771 33.4479C44.6748 33.3673 44.65 33.3068 44.6052 33.2677C44.5591 33.2274 44.4931 33.2084 44.4057 33.2119L43.9432 33.2274L43.9597 33.7171ZM43.6163 34.7688L43.555 32.9214L44.447 32.8918C44.6465 32.8847 44.7963 32.9226 44.8954 33.0056C44.9957 33.0886 45.0477 33.2191 45.0536 33.3957C45.0571 33.5084 45.037 33.6032 44.9922 33.6803C44.9485 33.7574 44.8825 33.8107 44.7951 33.8416C44.8754 33.8676 44.9344 33.9091 44.9698 33.9661C45.0052 34.0242 45.0276 34.1143 45.037 34.2376L45.0524 34.4558V34.4629C45.0583 34.5731 45.0842 34.6395 45.1303 34.6609L45.1314 34.7178L44.7173 34.732C44.7031 34.7059 44.6925 34.6751 44.6842 34.6372C44.676 34.5992 44.6689 34.5542 44.6665 34.5008L44.6547 34.3064C44.6465 34.1925 44.6229 34.1155 44.5827 34.0775C44.5426 34.0384 44.4718 34.0206 44.3715 34.0242L43.9703 34.0372L43.9951 34.7557L43.6163 34.7688ZM46.3303 34.3538L46.6336 34.3597C46.8094 34.3633 46.938 34.3194 47.0183 34.2281C47.0985 34.138 47.141 33.9874 47.1445 33.7811C47.1481 33.5736 47.115 33.4218 47.043 33.3234C46.9711 33.225 46.8578 33.174 46.702 33.1716L46.3527 33.1645L46.3303 34.3538ZM45.9527 34.6799L45.9881 32.8325L46.7079 32.8456C46.9911 32.8515 47.2 32.9321 47.3357 33.0874C47.4714 33.2428 47.5363 33.4764 47.5304 33.7882C47.5268 33.9566 47.4985 34.1048 47.4454 34.2328C47.3911 34.3609 47.3144 34.4629 47.2165 34.5399C47.1422 34.5969 47.0584 34.6372 46.964 34.6609C46.8708 34.6846 46.7398 34.6953 46.571 34.6917L45.9527 34.6799ZM48.2868 34.7214L48.3859 32.8764L49.7205 32.9487L49.7028 33.2689L48.7411 33.2167L48.721 33.6103L49.5989 33.6578L49.5824 33.9732L48.7033 33.9257L48.6785 34.4L49.6839 34.4546L49.6662 34.7961L48.2868 34.7214ZM50.4521 34.8506L50.6468 33.0127L51.2037 33.072L51.4185 34.5103L51.9259 33.1503L52.484 33.2096L52.2893 35.0474L51.9365 35.0095L52.0934 33.5273L51.5648 34.9704L51.1801 34.9289L50.9618 33.4064L50.8037 34.8885L50.4521 34.8506ZM55.3255 35.4814L55.7101 33.6744L57.0164 33.9554L56.9491 34.2696L56.0087 34.0668L55.9261 34.4522L56.7875 34.6372L56.7214 34.9466L55.86 34.7605L55.7609 35.2253L56.7462 35.4375L56.6754 35.7719L55.3255 35.4814ZM60.193 35.5952L60.547 35.6913C60.6425 35.7162 60.7169 35.715 60.7712 35.6865C60.8254 35.6569 60.8656 35.5976 60.8892 35.5063C60.9128 35.4221 60.908 35.3522 60.8774 35.2964C60.8467 35.2419 60.7889 35.2028 60.7039 35.1802L60.3322 35.0794L60.193 35.5952ZM60.1045 35.9177L59.9345 36.5521L59.5687 36.4537L60.0466 34.6692L60.8372 34.8826C61.0237 34.9336 61.1511 35.0213 61.2219 35.1435C61.2915 35.2668 61.301 35.4233 61.2502 35.6118C61.2019 35.7956 61.1169 35.9249 60.9954 35.9984C60.875 36.0731 60.7263 36.0861 60.5529 36.0399L60.1045 35.9177ZM62.3158 36.2082L62.7406 36.3399C62.8326 36.3683 62.907 36.3707 62.9612 36.3458C63.0167 36.3221 63.0556 36.2687 63.0804 36.1881C63.104 36.1122 63.1005 36.047 63.071 35.9948C63.0415 35.9415 62.9837 35.9023 62.9011 35.8762L62.4586 35.7399L62.3158 36.2082ZM61.6503 37.0904L62.1895 35.3237L63.0427 35.5869C63.2338 35.6462 63.3636 35.7316 63.4309 35.8419C63.4981 35.9533 63.5052 36.0932 63.4533 36.2628C63.4203 36.3707 63.3707 36.4537 63.3034 36.5118C63.2362 36.5699 63.1571 36.5995 63.0651 36.5995C63.1323 36.6505 63.1748 36.7086 63.1902 36.775C63.2043 36.8414 63.1961 36.9339 63.1654 37.0537L63.1087 37.2647C63.1087 37.2659 63.1076 37.2683 63.1064 37.2718C63.0769 37.3774 63.0792 37.4485 63.1158 37.4841L63.0993 37.5386L62.7028 37.4153C62.6981 37.3868 62.6969 37.3536 62.7016 37.3145C62.7064 37.2766 62.7146 37.2315 62.7288 37.1805L62.7807 36.9932C62.8102 36.8829 62.8126 36.8023 62.7878 36.7537C62.7618 36.7039 62.7016 36.6636 62.6049 36.6339L62.2214 36.5153L62.0113 37.2019L61.6503 37.0904ZM64.4504 37.0845C64.3808 37.2754 64.3702 37.439 64.4162 37.5766C64.461 37.7129 64.5601 37.809 64.7124 37.8647C64.8658 37.9204 65.0038 37.9121 65.1277 37.8374C65.2516 37.7627 65.3484 37.6299 65.418 37.439C65.4864 37.2481 65.4982 37.0845 65.4522 36.9481C65.405 36.8106 65.3047 36.7134 65.1513 36.6576C65.0003 36.6019 64.8622 36.6114 64.7395 36.6849C64.6168 36.7596 64.52 36.8924 64.4504 37.0845ZM64.0881 36.9505C64.1908 36.6707 64.3477 36.4762 64.559 36.3671C64.7714 36.2592 65.0062 36.2521 65.2646 36.347C65.5218 36.4418 65.6977 36.5995 65.7909 36.8201C65.8841 37.0418 65.8794 37.292 65.7767 37.5718C65.6752 37.8516 65.5183 38.0461 65.3047 38.154C65.0923 38.2631 64.8563 38.2702 64.5991 38.1753C64.3407 38.0805 64.166 37.9228 64.074 37.7022C63.9819 37.4817 63.9867 37.2303 64.0881 36.9505ZM67.4913 39.1215C67.3921 39.1796 67.2942 39.2117 67.1963 39.2176C67.0995 39.2235 66.9968 39.2034 66.8895 39.1571C66.6535 39.0551 66.4965 38.8915 66.4198 38.6639C66.3431 38.435 66.362 38.1872 66.4753 37.9192C66.5909 37.6477 66.7561 37.4627 66.9709 37.3631C67.1856 37.2623 67.4157 37.2647 67.6588 37.3691C67.8712 37.4604 68.0223 37.5849 68.1131 37.7449C68.204 37.9038 68.224 38.0781 68.1733 38.2678L67.8181 38.1161C67.8346 38.0188 67.8193 37.9323 67.7721 37.8576C67.7261 37.7829 67.6494 37.7236 67.5432 37.6773C67.4016 37.6169 67.2682 37.6216 67.1432 37.6916C67.0181 37.7603 66.9166 37.8872 66.8387 38.071C66.7597 38.256 66.7408 38.4184 66.7809 38.5595C66.821 38.7006 66.9142 38.8026 67.0606 38.8654C67.1715 38.9117 67.2777 38.9188 67.3792 38.8856C67.4818 38.8512 67.5656 38.7812 67.6317 38.6757L67.2482 38.5109L67.3709 38.2204L68.0718 38.5204L67.6812 39.4405L67.4488 39.3409L67.4913 39.1215ZM69.24 39.0729L69.6389 39.2698C69.7262 39.3124 69.7982 39.3255 69.856 39.3101C69.9138 39.2947 69.961 39.2496 69.9988 39.1725C70.033 39.1014 70.0401 39.0374 70.0188 38.9804C69.9976 38.9235 69.9468 38.8761 69.869 38.837L69.4536 38.633L69.24 39.0729ZM68.4447 39.8389L69.253 38.1801L70.0542 38.5737C70.2348 38.6627 70.3492 38.767 70.3976 38.8868C70.4472 39.0065 70.433 39.1464 70.3551 39.3053C70.3056 39.4073 70.243 39.4808 70.1687 39.5282C70.0932 39.5745 70.0094 39.5911 69.9185 39.5769C69.9775 39.6385 70.0094 39.7014 70.0153 39.7701C70.0188 39.8377 69.9964 39.9278 69.9468 40.0405L69.8583 40.2409C69.8583 40.242 69.8572 40.2444 69.8548 40.2468C69.8088 40.3464 69.8005 40.4175 69.8312 40.459L69.8064 40.5088L69.4335 40.3262C69.4335 40.2966 69.4383 40.2634 69.4489 40.2266C69.4595 40.1887 69.4748 40.146 69.4973 40.0986L69.5775 39.9219C69.6235 39.8176 69.6377 39.7381 69.6212 39.6848C69.6035 39.6314 69.5492 39.5828 69.4595 39.5389L69.0996 39.3611L68.7845 40.0061L68.4447 39.8389ZM70.5003 40.9001L71.3947 39.2852L72.5617 39.9373L72.406 40.2183L71.5646 39.7476L71.3746 40.0926L72.144 40.5219L71.9906 40.7981L71.2212 40.3689L70.9911 40.7839L71.8726 41.276L71.7074 41.5748L70.5003 40.9001ZM72.5759 41.4728L72.8957 41.6661C72.8555 41.7598 72.852 41.8463 72.885 41.9234C72.9181 42.0005 72.9901 42.0728 73.101 42.1392C73.1954 42.1973 73.2756 42.2234 73.3441 42.2174C73.4125 42.2139 73.4656 42.1783 73.5057 42.1119C73.5624 42.0159 73.4727 41.8534 73.2367 41.6246L73.2284 41.6163C73.2225 41.6104 73.2131 41.6009 73.2001 41.589C73.0715 41.4669 72.9889 41.3673 72.9511 41.289C72.9157 41.2203 72.9027 41.1456 72.9098 41.0673C72.9169 40.989 72.9452 40.9096 72.9948 40.8266C73.0868 40.6725 73.2095 40.5871 73.3629 40.5669C73.5163 40.5491 73.6922 40.5989 73.888 40.7175C74.0721 40.829 74.1901 40.9606 74.2409 41.11C74.2928 41.2606 74.2727 41.4171 74.1842 41.5795L73.8727 41.391C73.9128 41.3104 73.9187 41.2345 73.8892 41.1633C73.8609 41.091 73.7972 41.0246 73.7004 40.9665C73.6155 40.9143 73.5399 40.8918 73.4739 40.8966C73.4078 40.9025 73.357 40.9357 73.3193 40.9973C73.2685 41.0815 73.3216 41.1977 73.475 41.3483C73.5163 41.3886 73.5494 41.4206 73.5718 41.4432C73.6697 41.5428 73.737 41.6151 73.7759 41.6602C73.8137 41.7064 73.8444 41.7491 73.868 41.7918C73.9105 41.8665 73.9305 41.9424 73.927 42.0206C73.9234 42.1001 73.8975 42.1807 73.8479 42.2625C73.7488 42.4273 73.6178 42.521 73.4526 42.5447C73.2874 42.5684 73.1045 42.5198 72.9039 42.3977C72.7057 42.2779 72.5771 42.138 72.5204 41.9767C72.4638 41.8167 72.4815 41.6483 72.5759 41.4728ZM74.5134 42.6905L74.8226 42.9016C74.7778 42.9929 74.7707 43.0783 74.8002 43.1577C74.8285 43.236 74.8969 43.3119 75.0043 43.3842C75.0952 43.4458 75.1742 43.4767 75.2427 43.4755C75.3111 43.4743 75.3666 43.4423 75.4091 43.3783C75.4716 43.2846 75.3902 43.1186 75.166 42.8767C75.1636 42.8743 75.1601 42.8708 75.1589 42.8684C75.1518 42.8625 75.1436 42.853 75.1318 42.8388C75.0102 42.7107 74.9323 42.6075 74.8981 42.5269C74.8674 42.457 74.858 42.3811 74.8686 42.304C74.8804 42.2257 74.9123 42.1475 74.9666 42.068C75.0669 41.9186 75.1943 41.8392 75.3477 41.8285C75.5023 41.8179 75.6746 41.8771 75.8645 42.0064C76.0427 42.1273 76.1525 42.2637 76.1961 42.4166C76.2398 42.5696 76.2126 42.7237 76.1147 42.8814L75.8126 42.6775C75.8575 42.5992 75.8669 42.5234 75.8421 42.4498C75.8173 42.3763 75.7572 42.3076 75.6639 42.2435C75.5813 42.1878 75.507 42.1605 75.4409 42.1629C75.3748 42.1653 75.3217 42.1961 75.2816 42.2554C75.2273 42.336 75.2734 42.4558 75.4185 42.6135C75.4586 42.6562 75.4893 42.6905 75.5105 42.7143C75.6026 42.8174 75.6663 42.8945 75.7029 42.9407C75.7383 42.9882 75.7666 43.0344 75.7878 43.0771C75.8268 43.1542 75.8421 43.2312 75.835 43.3095C75.828 43.3877 75.7973 43.4672 75.743 43.5466C75.6368 43.7055 75.4999 43.7933 75.3335 43.8075C75.1672 43.8229 74.9878 43.7648 74.7931 43.632C74.6019 43.5016 74.4816 43.3545 74.4332 43.1921C74.3836 43.0285 74.4108 42.8613 74.5134 42.6905ZM76.851 43.9367C76.7283 44.0992 76.6693 44.2533 76.674 44.3968C76.6776 44.5414 76.7448 44.6624 76.8734 44.7608C77.0032 44.8592 77.1389 44.8912 77.2794 44.8568C77.4186 44.8225 77.5496 44.7229 77.6723 44.5604C77.7938 44.3992 77.8528 44.245 77.8481 44.1004C77.8422 43.9557 77.775 43.8336 77.6452 43.7352C77.5165 43.6367 77.382 43.6059 77.2428 43.6415C77.1035 43.6759 76.9726 43.7743 76.851 43.9367ZM76.543 43.7031C76.7224 43.466 76.9289 43.3261 77.1625 43.2834C77.3974 43.2419 77.6239 43.3047 77.8434 43.4707C78.0629 43.6379 78.1844 43.8395 78.2092 44.079C78.2328 44.3173 78.1561 44.5557 77.9779 44.7928C77.7986 45.0311 77.5909 45.1711 77.3561 45.2114C77.1212 45.2529 76.8935 45.1912 76.6752 45.0252C76.4557 44.858 76.3342 44.6553 76.3106 44.4169C76.287 44.1798 76.3637 43.9415 76.543 43.7031Z" fill="#00923F"/>
</g>
<defs>
<clipPath id="clip0_16_150">
<rect width="118" height="83" fill="white"/>
</clipPath>
</defs>
</svg>
