<svg width="91" height="91" viewBox="0 0 91 91" fill="none" xmlns="http://www.w3.org/2000/svg">
<path d="M89.2825 41.4448L49.5496 1.71756C49.0056 1.17328 48.3597 0.741512 47.6487 0.446933C46.9378 0.152353 46.1758 0.000732422 45.4063 0.000732422C44.6367 0.000732422 43.8747 0.152353 43.1638 0.446933C42.4529 0.741512 41.8069 1.17328 41.2629 1.71756L33.016 9.96444L43.481 20.4294C44.7153 20.008 46.0431 19.9421 47.313 20.2392C48.5828 20.5362 49.7436 21.1843 50.6628 22.1095C51.5821 23.0346 52.2227 24.1996 52.5116 25.4713C52.8005 26.7431 52.726 28.0705 52.2967 29.3019L62.3806 39.3916C63.8725 38.8663 65.4988 38.8647 66.9917 39.387C68.4847 39.9094 69.7552 40.9246 70.5942 42.2655C71.4331 43.6063 71.7904 45.1929 71.6073 46.7639C71.4242 48.335 70.7115 49.7968 69.5867 50.9087C68.4479 52.0545 66.9468 52.7693 65.3395 52.9311C63.7323 53.0929 62.1188 52.6917 60.7745 51.796C59.4303 50.9002 58.4387 49.5656 57.9692 48.02C57.4997 46.4744 57.5814 44.8137 58.2003 43.3216L48.7989 33.9145V58.6722C50.2279 59.3796 51.3713 60.5553 52.0385 62.0035C52.7058 63.4517 52.8565 65.0849 52.4656 66.6307C52.0747 68.1766 51.1658 69.5418 49.8904 70.4988C48.615 71.4558 47.0501 71.9467 45.4566 71.8898C43.8631 71.8329 42.3373 71.2315 41.1334 70.186C39.9295 69.1405 39.1203 67.7139 38.8407 66.1441C38.5611 64.5743 38.8279 62.9561 39.5968 61.5592C40.3656 60.1623 41.59 59.0711 43.0659 58.4674V33.4823C42.2144 33.1333 41.4404 32.6194 40.7885 31.9699C40.1366 31.3205 39.6197 30.5484 39.2675 29.6983C38.9154 28.8481 38.7351 27.9366 38.7369 27.0165C38.7386 26.0963 38.9226 25.1855 39.278 24.3367L28.9665 14.0196L1.72342 41.2628C1.17914 41.8068 0.747372 42.4527 0.452792 43.1636C0.158213 43.8745 0.0065918 44.6366 0.0065918 45.4061C0.0065918 46.1756 0.158213 46.9376 0.452792 47.6486C0.747372 48.3595 1.17914 49.0054 1.72342 49.5494L41.4563 89.2823C42.0003 89.8266 42.6462 90.2584 43.3572 90.5529C44.0681 90.8475 44.8301 90.9991 45.5996 90.9991C46.3692 90.9991 47.1312 90.8475 47.8421 90.5529C48.553 90.2584 49.199 89.8266 49.743 89.2823L89.2882 49.7371C90.386 48.6377 91.0026 47.1475 91.0026 45.5938C91.0026 44.0401 90.386 42.5499 89.2882 41.4504" fill="#D9E1F1"/>
</svg>
