<svg width="90" height="91" viewBox="0 0 90 91" fill="none" xmlns="http://www.w3.org/2000/svg">
<path d="M89.2759 41.444L49.543 1.71683C48.999 1.17255 48.3531 0.74078 47.6422 0.4462C46.9312 0.151621 46.1692 0 45.3997 0C44.6301 0 43.8681 0.151621 43.1572 0.4462C42.4463 0.74078 41.8003 1.17255 41.2563 1.71683L33.0095 9.9637L43.4745 20.4287C44.7087 20.0073 46.0365 19.9414 47.3064 20.2385C48.5763 20.5355 49.737 21.1836 50.6563 22.1088C51.5755 23.0339 52.2161 24.1988 52.505 25.4706C52.7939 26.7424 52.7194 28.0697 52.2901 29.3012L62.374 39.3908C63.8659 38.8655 65.4922 38.8639 66.9852 39.3863C68.4781 39.9087 69.7486 40.9239 70.5876 42.2647C71.4265 43.6056 71.7838 45.1921 71.6007 46.7632C71.4176 48.3342 70.7049 49.7961 69.5801 50.908C68.4414 52.0537 66.9402 52.7685 65.333 52.9304C63.7257 53.0922 62.1122 52.691 60.7679 51.7952C59.4237 50.8995 58.4321 49.5649 57.9626 48.0192C57.4931 46.4736 57.5748 44.813 58.1937 43.3209L48.7923 33.9138V58.6715C50.2213 59.3788 51.3647 60.5546 52.032 62.0028C52.6992 63.451 52.8499 65.0841 52.459 66.63C52.0681 68.1759 51.1593 69.5411 49.8838 70.498C48.6084 71.455 47.0436 71.946 45.4501 71.8891C43.8566 71.8322 42.3307 71.2308 41.1268 70.1853C39.9229 69.1398 39.1137 67.7132 38.8341 66.1434C38.5545 64.5736 38.8213 62.9554 39.5902 61.5584C40.359 60.1615 41.5834 59.0703 43.0593 58.4667V33.4815C42.2078 33.1326 41.4338 32.6186 40.7819 31.9692C40.13 31.3197 39.6131 30.5477 39.2609 29.6975C38.9088 28.8474 38.7285 27.9359 38.7303 27.0157C38.7321 26.0955 38.916 25.1848 39.2714 24.336L28.96 14.0189L1.71683 41.262C1.17255 41.806 0.74078 42.452 0.4462 43.1629C0.151621 43.8738 0 44.6358 0 45.4054C0 46.1749 0.151621 46.9369 0.4462 47.6478C0.74078 48.3588 1.17255 49.0047 1.71683 49.5487L41.4497 89.2816C41.9937 89.8259 42.6396 90.2576 43.3506 90.5522C44.0615 90.8468 44.8235 90.9984 45.593 90.9984C46.3626 90.9984 47.1246 90.8468 47.8355 90.5522C48.5465 90.2576 49.1924 89.8259 49.7364 89.2816L89.2816 49.7364C90.3794 48.637 90.9961 47.1468 90.9961 45.593C90.9961 44.0393 90.3794 42.5491 89.2816 41.4497" fill="#002A40"/>
</svg>
