<svg width="60" height="60" viewBox="0 0 60 60" fill="none" xmlns="http://www.w3.org/2000/svg">
<path fill-rule="evenodd" clip-rule="evenodd" d="M29.9981 0C13.4321 0 0 13.7713 0 30.7594C0 44.348 8.5934 55.8773 20.5176 59.946C22.018 60.2267 22.4906 59.3153 22.4906 58.5C22.4906 57.7693 22.5056 55.7273 22.4906 53.1603C14.1467 55.0197 12.4175 49.1089 12.4175 49.1089C11.054 45.5555 9.08852 44.6095 9.08852 44.6095C6.36534 42.7021 9.29295 42.7386 9.29295 42.7386C12.3031 42.9559 13.8897 45.9093 13.8897 45.9093C16.566 50.6068 20.9096 49.2493 22.6182 48.4648C22.892 46.4766 23.6684 45.121 24.5255 44.3519C17.8638 43.575 10.8608 40.9369 10.8608 29.15C10.8608 25.7908 12.0293 23.047 13.9479 20.8973C13.6384 20.1204 12.6069 16.992 14.2423 12.756C14.2423 12.756 16.7611 11.9292 22.4906 15.9114C24.8837 15.2288 27.4512 14.8884 30.0019 14.8769C32.5506 14.8884 35.1163 15.2288 37.5131 15.9114C43.2427 11.9311 45.7577 12.756 45.7577 12.756C47.3931 16.992 46.3635 20.1204 46.0559 20.8973C47.9745 23.047 49.1392 25.7908 49.1392 29.15C49.1392 40.9677 42.1249 43.5673 35.4407 44.3269C36.5173 45.2787 37.4944 47.1246 37.4944 49.9934C37.4944 53.8391 37.4944 57.4963 37.4944 58.5077C37.4944 59.3307 37.9782 60.2402 39.5011 59.9421C51.4141 55.8677 60 44.3442 60 30.7594C60 13.7713 46.5679 0 29.9981 0Z" fill="#D5DEEF"/>
</svg>
