<svg width="61" height="60" viewBox="0 0 61 60" fill="none" xmlns="http://www.w3.org/2000/svg">
<path d="M56.2848 0H5.15275C2.70541 0 0.720581 1.92529 0.720581 4.29812V55.7031C0.720581 58.0747 2.70541 60 5.15275 60H56.2848C58.7358 60 60.7206 58.0735 60.7206 55.7031V4.29812C60.7206 1.92408 58.7345 0 56.2848 0ZM18.9069 50.2276H9.84471V23.1348H18.9069V50.2276ZM14.3764 19.4338H14.3157C11.276 19.4338 9.30935 17.3529 9.30935 14.7533C9.30935 12.0958 11.3367 10.0728 14.4359 10.0728C17.5364 10.0728 19.4435 12.0958 19.5042 14.7533C19.5042 17.3529 17.5351 19.4338 14.3764 19.4338ZM51.5855 50.2276H42.5233V35.73C42.5233 32.0893 41.2122 29.6043 37.9333 29.6043C35.4301 29.6043 33.9394 31.2799 33.2826 32.8988C33.0435 33.4766 32.9852 34.2849 32.9852 35.0955V50.2264H23.923C23.923 50.2264 24.042 25.6729 23.923 23.1336H32.9852V26.9685C34.1895 25.1228 36.343 22.4943 41.154 22.4943C47.1157 22.4943 51.5867 26.3678 51.5867 34.6902L51.5855 50.2276Z" fill="#395886"/>
</svg>
