<svg width="78" height="78" viewBox="0 0 78 78" fill="none" xmlns="http://www.w3.org/2000/svg">
<path d="M0.5 0.5V77.5H77.5V0.5H0.5ZM41.75 60.3125C41.75 67.808 37.3225 71.462 30.9133 71.462C25.1245 71.462 21.7644 68.4645 20.0594 64.8466L25.9513 61.2802C27.0873 63.2963 27.9502 65.0012 30.4303 65.0012C32.4928 65.0012 34.1875 64.0714 34.1875 60.4534V36.25H41.75V60.3125ZM58.8258 71.2902C52.1072 71.2902 47.7656 68.2583 45.6464 64.0714L51.5469 60.6562C53.0938 63.1897 55.1133 64.8775 58.6797 64.8775C61.6772 64.8775 63.4183 63.5506 63.4183 61.483C63.4183 59.0028 61.6256 58.1245 58.317 56.6705L56.5089 55.8936C51.2873 53.673 47.8258 50.8817 47.8258 44.9881C47.8258 39.562 51.9594 35.5986 58.4202 35.5986C63.0212 35.5986 66.3264 37.0286 68.7069 41.2155L63.0625 44.8438C61.8216 42.6214 60.4844 41.75 58.4116 41.75C56.2923 41.75 54.9483 43.0941 54.9483 44.8438C54.9483 47.0145 56.2923 47.8928 59.393 49.2369L61.2011 50.012C67.3525 52.6486 70.8158 55.3402 70.8158 61.3833C70.8175 67.8973 65.7008 71.2902 58.8258 71.2902Z" fill="#DAE2F1"/>
</svg>
