<svg width="38" height="40" viewBox="0 0 38 40" fill="none" xmlns="http://www.w3.org/2000/svg">
<path d="M30.25 19.9862C30.2516 21.2971 29.2449 22.3624 28.0029 22.3639L10.0029 22.3857C8.76088 22.3872 7.75159 21.3244 7.75 20.0134C7.74841 18.7024 8.75512 17.6372 9.99712 17.6357L27.9971 17.6139C29.2391 17.6124 30.2484 18.6752 30.25 19.9862Z" fill="#EFF2FA"/>
<path d="M30.2385 10.4862C30.2401 11.7971 29.2333 12.8624 27.9913 12.8639L9.99136 12.8857C8.74936 12.8872 7.74007 11.8244 7.73848 10.5134C7.73689 9.20243 8.7436 8.13721 9.9856 8.1357L27.9856 8.11388C29.2276 8.11237 30.2369 9.17515 30.2385 10.4862Z" fill="#EFF2FA"/>
<path d="M30.2615 29.4862C30.2631 30.7971 29.2564 31.8624 28.0144 31.8639L10.0144 31.8857C8.7724 31.8872 7.76311 30.8244 7.76152 29.5134C7.75994 28.2024 8.76664 27.1372 10.0086 27.1357L28.0086 27.1139C29.2506 27.1124 30.2599 28.1752 30.2615 29.4862Z" fill="#EFF2FA"/>
</svg>
