<svg width="38" height="40" viewBox="0 0 38 40" fill="none" xmlns="http://www.w3.org/2000/svg">
<path d="M30.25 19.9862C30.2516 21.2971 29.2449 22.3624 28.0029 22.3639L10.0029 22.3857C8.76093 22.3872 7.75164 21.3244 7.75005 20.0134C7.74846 18.7024 8.75517 17.6372 9.99717 17.6357L27.9972 17.6139C29.2392 17.6124 30.2484 18.6752 30.25 19.9862Z" fill="#002B42"/>
<path d="M30.2384 10.4862C30.24 11.7971 29.2333 12.8624 27.9913 12.8639L9.99133 12.8857C8.74933 12.8872 7.74004 11.8244 7.73845 10.5134C7.73686 9.20243 8.74357 8.13721 9.98557 8.1357L27.9856 8.11388C29.2276 8.11237 30.2368 9.17515 30.2384 10.4862Z" fill="#002B42"/>
<path d="M30.2615 29.4862C30.2631 30.7971 29.2564 31.8624 28.0144 31.8639L10.0144 31.8857C8.7724 31.8872 7.76311 30.8244 7.76152 29.5134C7.75994 28.2024 8.76664 27.1372 10.0086 27.1357L28.0086 27.1139C29.2506 27.1124 30.2599 28.1752 30.2615 29.4862Z" fill="#002B42"/>
</svg>
