<svg width="36" height="36" viewBox="0 0 36 36" fill="none" xmlns="http://www.w3.org/2000/svg">
<path d="M18.6428 36C13.6984 36 8.95653 34.0359 5.46034 30.5397C1.96414 27.0435 0 22.3016 0 17.3572C0 9.80372 4.33926 3.03125 11.0579 0.107074C11.2947 0.00387624 11.5571 -0.0256086 11.8108 0.0224623C12.0646 0.0705333 12.2981 0.193931 12.4807 0.376576C12.6633 0.559221 12.7867 0.792644 12.8348 1.04643C12.8829 1.30022 12.8534 1.5626 12.7502 1.79939C11.9788 3.57045 11.5714 5.83892 11.5714 8.3573C11.5714 17.219 18.781 24.4286 27.6427 24.4286C30.1611 24.4286 32.4295 24.0212 34.2006 23.2498C34.4374 23.1466 34.6998 23.1171 34.9536 23.1652C35.2074 23.2133 35.4408 23.3367 35.6234 23.5193C35.8061 23.7019 35.9295 23.9354 35.9775 24.1892C36.0256 24.4429 35.9961 24.7053 35.8929 24.9421C32.9687 31.6607 26.1963 36 18.6428 36Z" fill="#EFF2FA"/>
</svg>
