<svg width="88" height="88" viewBox="0 0 88 88" fill="none" xmlns="http://www.w3.org/2000/svg">
<path d="M45.5712 88C33.4849 88 21.8937 83.1988 13.3475 74.6525C4.80124 66.1063 0 54.5151 0 42.4288C0 23.9646 10.6071 7.40973 27.0304 0.261737C27.6092 0.00947528 28.2506 -0.0625987 28.8709 0.054908C29.4913 0.172415 30.0619 0.474053 30.5084 0.920519C30.9548 1.36698 31.2565 1.93757 31.374 2.55794C31.4915 3.17831 31.4194 3.81969 31.1671 4.3985C29.2814 8.72776 28.2856 14.2729 28.2856 20.4289C28.2856 42.091 45.909 59.7144 67.5711 59.7144C73.7271 59.7144 79.2722 58.7186 83.6015 56.8329C84.1803 56.5806 84.8217 56.5085 85.4421 56.626C86.0624 56.7435 86.633 57.0452 87.0795 57.4916C87.5259 57.9381 87.8276 58.5087 87.9451 59.1291C88.0626 59.7494 87.9905 60.3908 87.7383 60.9696C80.5903 77.3929 64.0354 88 45.5712 88Z" fill="#EFF2FA"/>
</svg>
