<svg width="63" height="59" viewBox="0 0 63 59" fill="none" xmlns="http://www.w3.org/2000/svg">
<path d="M59.5412 1.48234C59.5412 0.694542 59.0425 0.0559082 58.4272 0.0559082H4.95656C4.34133 0.0559082 3.84259 0.694542 3.84259 1.48234V47.128H59.5412V1.48234ZM8.29848 41.4223C8.29848 42.2101 7.79974 42.8488 7.18451 42.8488C6.56928 42.8488 6.07053 42.2101 6.07053 41.4223V15.7466C6.07053 14.9588 6.56928 14.3202 7.18451 14.3202C7.79974 14.3202 8.29848 14.9588 8.29848 15.7466V41.4223ZM8.29848 8.61448C8.29848 9.40227 7.79974 10.0409 7.18451 10.0409C6.56928 10.0409 6.07053 9.40227 6.07053 8.61448V5.76162C6.07053 4.97383 6.56928 4.33519 7.18451 4.33519C7.79974 4.33519 8.29848 4.97383 8.29848 5.76162V8.61448Z" fill="#002B42"/>
<path d="M59.5412 1.48234C59.5412 0.694542 59.0425 0.0559082 58.4272 0.0559082H4.95656C4.34133 0.0559082 3.84259 0.694542 3.84259 1.48234V47.128H59.5412V1.48234ZM8.29848 41.4223C8.29848 42.2101 7.79974 42.8488 7.18451 42.8488C6.56928 42.8488 6.07053 42.2101 6.07053 41.4223V15.7466C6.07053 14.9588 6.56928 14.3202 7.18451 14.3202C7.79974 14.3202 8.29848 14.9588 8.29848 15.7466V41.4223ZM8.29848 8.61448C8.29848 9.40227 7.79974 10.0409 7.18451 10.0409C6.56928 10.0409 6.07053 9.40227 6.07053 8.61448V5.76162C6.07053 4.97383 6.56928 4.33519 7.18451 4.33519C7.79974 4.33519 8.29848 4.97383 8.29848 5.76162V8.61448Z" stroke="#B1C9EF"/>
<path d="M0.50061 54.26C0.506116 56.6205 1.99912 58.5322 3.84253 58.5393H59.5411C61.3845 58.5322 62.8776 56.6205 62.8831 54.26V49.9807H0.50061V54.26ZM10.5264 52.8336H25.008C25.6232 52.8336 26.122 53.4722 26.122 54.26C26.122 55.0478 25.6232 55.6864 25.008 55.6864H10.5264C9.91113 55.6864 9.41239 55.0478 9.41239 54.26C9.41239 53.4722 9.91113 52.8336 10.5264 52.8336ZM3.84253 52.8336H6.07047C6.6857 52.8336 7.18444 53.4722 7.18444 54.26C7.18444 55.0478 6.6857 55.6864 6.07047 55.6864H3.84253C3.2273 55.6864 2.72855 55.0478 2.72855 54.26C2.72855 53.4722 3.2273 52.8336 3.84253 52.8336Z" fill="#002B42"/>
<path d="M0.50061 54.26C0.506116 56.6205 1.99912 58.5322 3.84253 58.5393H59.5411C61.3845 58.5322 62.8776 56.6205 62.8831 54.26V49.9807H0.50061V54.26ZM10.5264 52.8336H25.008C25.6232 52.8336 26.122 53.4722 26.122 54.26C26.122 55.0478 25.6232 55.6864 25.008 55.6864H10.5264C9.91113 55.6864 9.41239 55.0478 9.41239 54.26C9.41239 53.4722 9.91113 52.8336 10.5264 52.8336ZM3.84253 52.8336H6.07047C6.6857 52.8336 7.18444 53.4722 7.18444 54.26C7.18444 55.0478 6.6857 55.6864 6.07047 55.6864H3.84253C3.2273 55.6864 2.72855 55.0478 2.72855 54.26C2.72855 53.4722 3.2273 52.8336 3.84253 52.8336Z" stroke="#B1C9EF"/>
</svg>
