<svg width="63" height="59" viewBox="0 0 63 59" fill="none" xmlns="http://www.w3.org/2000/svg">
<path d="M59.5856 1.81974C59.5856 1.03194 59.0868 0.393311 58.4716 0.393311H5.00094C4.38571 0.393311 3.88696 1.03194 3.88696 1.81974V47.4654H59.5856V1.81974ZM8.34285 41.7597C8.34285 42.5475 7.84411 43.1862 7.22888 43.1862C6.61365 43.1862 6.11491 42.5475 6.11491 41.7597V16.084C6.11491 15.2962 6.61365 14.6576 7.22888 14.6576C7.84411 14.6576 8.34285 15.2962 8.34285 16.084V41.7597ZM8.34285 8.95188C8.34285 9.73967 7.84411 10.3783 7.22888 10.3783C6.61365 10.3783 6.11491 9.73967 6.11491 8.95188V6.09902C6.11491 5.31123 6.61365 4.67259 7.22888 4.67259C7.84411 4.67259 8.34285 5.31123 8.34285 6.09902V8.95188Z" fill="#F0F3FA"/>
<path d="M0.545013 54.5974C0.550519 56.9579 2.04353 58.8696 3.88693 58.8767H59.5855C61.429 58.8696 62.922 56.9579 62.9275 54.5974V50.3181H0.545013V54.5974ZM10.5708 53.171H25.0524C25.6676 53.171 26.1664 53.8096 26.1664 54.5974C26.1664 55.3852 25.6676 56.0238 25.0524 56.0238H10.5708C9.95553 56.0238 9.45679 55.3852 9.45679 54.5974C9.45679 53.8096 9.95553 53.171 10.5708 53.171ZM3.88693 53.171H6.11487C6.7301 53.171 7.22885 53.8096 7.22885 54.5974C7.22885 55.3852 6.7301 56.0238 6.11487 56.0238H3.88693C3.2717 56.0238 2.77296 55.3852 2.77296 54.5974C2.77296 53.8096 3.2717 53.171 3.88693 53.171Z" fill="#F0F3FA"/>
</svg>
