<svg width="93" height="86" viewBox="0 0 93 86" fill="none" xmlns="http://www.w3.org/2000/svg">
<path fill-rule="evenodd" clip-rule="evenodd" d="M32.9553 7.38673C30.4786 6.66822 28.6415 6.86091 27.3052 7.58476C25.9688 8.30867 24.8038 9.74211 24.0527 12.2091C23.2961 14.694 23.0378 18.0114 23.4055 22.017C23.4651 22.6661 23.5407 23.3292 23.6324 24.0052C26.8762 23.1808 30.3621 22.5297 34.0249 22.0752C36.564 18.5177 39.2274 15.3095 41.9294 12.5276C41.794 12.4178 41.6589 12.3095 41.5238 12.2027C38.3696 9.70646 35.4499 8.11052 32.9553 7.38673ZM46.4996 8.26044C46.1233 7.94492 45.7471 7.63833 45.3713 7.34098C41.8252 4.53455 38.1935 2.45085 34.6829 1.43231C31.1542 0.408523 27.532 0.410712 24.3521 2.13319C21.1723 3.85565 19.1917 6.88838 18.1215 10.4033C17.0568 13.9002 16.8181 18.0804 17.2315 22.5837C17.3284 23.6393 17.4619 24.7211 17.6315 25.826C16.5794 26.203 15.5646 26.6008 14.5904 27.0184C10.4337 28.7998 6.87189 31.0006 4.30417 33.6024C1.7233 36.2175 0 39.4035 0 43.0199C0 46.6363 1.72329 49.8223 4.30417 52.4374C6.87189 55.0392 10.4337 57.24 14.5904 59.0217C15.5646 59.439 16.5793 59.837 17.6314 60.214C17.4618 61.3188 17.3283 62.4007 17.2313 63.4566C16.8179 67.9596 17.0566 72.1397 18.1214 75.6371C19.1915 79.1519 21.1721 82.1843 24.352 83.9066C27.5319 85.6296 31.1541 85.6315 34.6827 84.6079C38.1934 83.5892 41.8251 81.5054 45.3712 78.6993C45.7471 78.4017 46.1232 78.0954 46.4996 77.7798C46.876 78.0954 47.2522 78.4017 47.628 78.6993C51.1742 81.5054 54.8058 83.5892 58.3165 84.6079C61.8452 85.6315 65.467 85.6296 68.647 83.9066C71.827 82.1843 73.8079 79.1519 74.878 75.6371C75.9426 72.1397 76.1813 67.9596 75.7677 63.4566C75.671 62.4007 75.5377 61.3188 75.3678 60.214C76.42 59.837 77.4349 59.439 78.4095 59.0217C82.566 57.24 86.1279 55.0392 88.696 52.4374C91.2764 49.8223 93 46.6363 93 43.0199C93 39.4035 91.2764 36.2175 88.696 33.6024C86.1279 31.0006 82.566 28.7998 78.4095 27.0184C77.4349 26.6008 76.42 26.2029 75.3678 25.8257C75.5371 24.7209 75.671 23.6392 75.7677 22.5837C76.1813 18.0804 75.9426 13.9002 74.878 10.4033C73.8079 6.88838 71.827 3.85565 68.647 2.13319C65.467 0.410712 61.8451 0.408523 58.3164 1.43231C54.8057 2.45085 51.1741 4.53455 47.6278 7.34098C47.2521 7.63833 46.876 7.94492 46.4996 8.26044ZM46.4996 16.7213C45.1059 18.1484 43.711 19.7125 42.3318 21.4021C43.706 21.3476 45.0964 21.3199 46.5 21.3199C47.9034 21.3199 49.2935 21.3476 50.6674 21.4021C49.2883 19.7125 47.8934 18.1484 46.4996 16.7213ZM58.9743 22.0751C56.4352 18.5176 53.7718 15.3095 51.0698 12.5276C51.2052 12.4178 51.3404 12.3095 51.4754 12.2027C54.6296 9.70646 57.5493 8.11052 60.044 7.38673C62.5208 6.66822 64.3579 6.86091 65.694 7.58476C67.0307 8.30867 68.1957 9.74211 68.9465 12.2091C69.7029 14.694 69.9614 18.0114 69.5938 22.017C69.5342 22.666 69.4586 23.329 69.3668 24.005C66.123 23.1807 62.6374 22.5296 58.9743 22.0751ZM55.486 27.932C52.6008 27.6629 49.5944 27.5199 46.5 27.5199C43.4053 27.5199 40.3986 27.6629 37.5132 27.9321C35.9023 30.3409 34.3445 32.9165 32.8706 35.6375C31.5284 38.1154 30.3252 40.5856 29.2619 43.0199C30.3253 45.4544 31.5285 47.9246 32.8707 50.4026C34.3446 53.1235 35.9023 55.699 37.5132 58.1078C40.3986 58.3769 43.4053 58.5201 46.5 58.5201C49.5945 58.5201 52.6009 58.3769 55.486 58.1078C57.0969 55.6991 58.6546 53.1236 60.1285 50.4026C61.4708 47.9246 62.6739 45.4544 63.7372 43.0199C62.6739 40.5856 61.4708 38.1154 60.1287 35.6375C58.6547 32.9164 57.0969 30.3409 55.486 27.932ZM66.7914 34.9879C66.3995 34.22 65.9959 33.4519 65.5805 32.6845C64.9115 31.4504 64.2252 30.241 63.5227 29.0587C65.1384 29.3663 66.6953 29.7157 68.1864 30.103C67.7945 31.6895 67.3295 33.3213 66.7914 34.9879ZM66.7914 51.052C66.3995 51.82 65.9959 52.5881 65.5799 53.3556C64.9115 54.5896 64.2252 55.7988 63.5227 56.9812C65.1384 56.6735 66.6953 56.324 68.1864 55.9367C67.7945 54.3503 67.3295 52.7185 66.7914 51.052ZM74.1105 54.0703C73.2115 50.5134 71.9907 46.7999 70.4624 43.0199C71.9907 39.2399 73.2115 35.5264 74.1105 31.9695C74.7491 32.2109 75.3678 32.4603 75.9674 32.7171C79.6644 34.3016 82.4581 36.1087 84.2828 37.9575C86.0944 39.793 86.8 41.5001 86.8 43.0199C86.8 44.5397 86.0944 46.2468 84.2828 48.0823C82.4581 49.9311 79.6644 51.7382 75.9674 53.3227C75.3678 53.5795 74.7491 53.8289 74.1105 54.0703ZM69.3668 62.0349C66.123 62.8589 62.6374 63.5105 58.9745 63.965C56.4353 67.5225 53.7719 70.7304 51.0698 73.5123C51.2052 73.6221 51.3405 73.7306 51.4756 73.8372C54.6297 76.3333 57.5495 77.9298 60.0441 78.6534C62.5208 79.372 64.3579 79.1791 65.694 78.4556C67.0307 77.7314 68.1957 76.298 68.9465 73.831C69.7035 71.3461 69.9614 68.0284 69.5938 64.0232C69.5342 63.3741 69.4586 62.7107 69.3668 62.0349ZM46.4996 69.3187C47.8934 67.8914 49.2883 66.3272 50.6675 64.6377C49.2935 64.6922 47.9034 64.7201 46.5 64.7201C45.0964 64.7201 43.706 64.6922 42.3317 64.6377C43.7109 66.3272 45.1058 67.8914 46.4996 69.3187ZM29.4764 56.981C28.7741 55.7988 28.0875 54.5896 27.4191 53.3556C27.0034 52.5881 26.5995 51.82 26.2076 51.052C25.6699 52.7185 25.2049 54.3502 24.8129 55.9365C26.3037 56.3239 27.8608 56.6733 29.4764 56.981ZM23.6324 62.0349C26.8761 62.8589 30.362 63.5099 34.0247 63.9643C36.5639 67.5219 39.2274 70.7304 41.9295 73.5123C41.794 73.6221 41.6587 73.7306 41.5237 73.8372C38.3695 76.3333 35.4498 77.9298 32.9552 78.6534C30.4785 79.372 28.6414 79.1791 27.305 78.4556C25.9686 77.7314 24.8037 76.298 24.0525 73.831C23.2959 71.3461 23.0377 68.0284 23.4054 64.0232C23.465 63.3741 23.5407 62.7107 23.6324 62.0349ZM18.8887 54.0701C19.7877 50.5133 21.0083 46.7998 22.5366 43.0199C21.0083 39.24 19.7877 35.5265 18.8887 31.9697C18.2507 32.2111 17.6317 32.4603 17.0327 32.7171C13.3355 34.3016 10.5416 36.1087 8.71701 37.9575C6.90556 39.793 6.2 41.5001 6.2 43.0199C6.2 44.5397 6.90556 46.2468 8.71701 48.0823C10.5416 49.9311 13.3355 51.7382 17.0327 53.3227C17.6317 53.5795 18.2507 53.8287 18.8887 54.0701ZM24.8129 30.1032C25.2049 31.6896 25.6699 33.3213 26.2076 34.9878C26.5995 34.22 27.0034 33.452 27.419 32.6845C28.0875 31.4504 28.7741 30.2412 29.4765 29.0588C27.8609 29.3665 26.3037 29.7159 24.8129 30.1032ZM37.2 43.0199C37.2 37.8837 41.3637 33.7199 46.5 33.7199C51.6363 33.7199 55.8 37.8837 55.8 43.0199C55.8 48.1561 51.6363 52.3199 46.5 52.3199C41.3637 52.3199 37.2 48.1561 37.2 43.0199ZM46.5 39.9199C44.7879 39.9199 43.4 41.3078 43.4 43.0199C43.4 44.732 44.7879 46.1199 46.5 46.1199C48.2121 46.1199 49.6 44.732 49.6 43.0199C49.6 41.3078 48.2121 39.9199 46.5 39.9199Z" fill="#002A40"/>
</svg>
