<svg width="63" height="59" viewBox="0 0 63 59" fill="none" xmlns="http://www.w3.org/2000/svg">
<path d="M16.1279 0.469659C12.0776 0.371751 7.39919 1.69677 2.515 4.28807C1.27824 4.94418 0.500671 6.46424 0.500671 8.09343V54.776C0.500671 56.2837 1.79915 57.3281 2.93194 56.6884C16.6099 48.9681 26.7356 58.1244 27.1688 58.5173C27.4775 58.8045 27.8457 58.9481 28.2247 58.9481C29.5676 58.9481 29.9575 57.4626 29.9575 56.862V6.73577C29.9575 6.05655 29.6834 5.41989 29.2231 5.02825C29.0153 4.8481 23.9686 0.640671 16.1279 0.469659ZM60.8654 4.28807C55.9801 1.7046 51.2833 0.422662 47.2525 0.468353C40.064 0.625292 35.3106 4.17193 34.332 4.90209C34.2426 4.96879 34.1848 5.01198 34.1594 5.02695C33.6937 5.41989 33.423 6.05564 33.423 6.73577V56.7472C33.423 57.4338 33.802 58.9481 35.1557 58.9481C35.533 58.9481 35.9071 58.8013 36.215 58.5137C36.64 58.1197 46.7674 48.9631 60.4518 56.6861C61.5846 57.3252 62.8831 56.2807 62.8831 54.7736L62.8831 8.09108C62.7823 6.46554 62.1 4.9434 60.8654 4.28807Z" fill="#002B42"/>
<path d="M16.1279 0.469659C12.0776 0.371751 7.39919 1.69677 2.515 4.28807C1.27824 4.94418 0.500671 6.46424 0.500671 8.09343V54.776C0.500671 56.2837 1.79915 57.3281 2.93194 56.6884C16.6099 48.9681 26.7356 58.1244 27.1688 58.5173C27.4775 58.8045 27.8457 58.9481 28.2247 58.9481C29.5676 58.9481 29.9575 57.4626 29.9575 56.862V6.73577C29.9575 6.05655 29.6834 5.41989 29.2231 5.02825C29.0153 4.8481 23.9686 0.640671 16.1279 0.469659ZM60.8654 4.28807C55.9801 1.7046 51.2833 0.422662 47.2525 0.468353C40.064 0.625292 35.3106 4.17193 34.332 4.90209C34.2426 4.96879 34.1848 5.01198 34.1594 5.02695C33.6937 5.41989 33.423 6.05564 33.423 6.73577V56.7472C33.423 57.4338 33.802 58.9481 35.1557 58.9481C35.533 58.9481 35.9071 58.8013 36.215 58.5137C36.64 58.1197 46.7674 48.9631 60.4518 56.6861C61.5846 57.3252 62.8831 56.2807 62.8831 54.7736L62.8831 8.09108C62.7823 6.46554 62.1 4.9434 60.8654 4.28807Z" stroke="#B1C9EF"/>
</svg>
