<svg width="37" height="38" viewBox="0 0 37 38" fill="none" xmlns="http://www.w3.org/2000/svg">
<path d="M18.5 28.9353C15.93 28.9353 13.4653 27.8875 11.6481 26.0225C9.83089 24.1574 8.80998 21.6279 8.80998 18.9903C8.80998 16.3527 9.83089 13.8232 11.6481 11.9581C13.4653 10.0931 15.93 9.04531 18.5 9.04531C21.0699 9.04531 23.5346 10.0931 25.3518 11.9581C27.1691 13.8232 28.19 16.3527 28.19 18.9903C28.19 21.6279 27.1691 24.1574 25.3518 26.0225C23.5346 27.8875 21.0699 28.9353 18.5 28.9353ZM16.885 0.757812H20.115V5.73031H16.885V0.757812ZM16.885 32.2503H20.115V37.2228H16.885V32.2503ZM4.79671 7.27013L7.08032 4.92642L10.5057 8.44198L8.22213 10.7857L4.79671 7.27013ZM26.4942 29.5386L28.7778 27.1949L32.2033 30.7105L29.9196 33.0542L26.4942 29.5386ZM29.9196 4.92477L32.2033 7.27013L28.7778 10.7857L26.4942 8.44198L29.9196 4.92642V4.92477ZM8.22213 27.1949L10.5057 29.5386L7.08032 33.0542L4.79671 30.7105L8.22213 27.1949ZM36.265 17.3328V20.6478H31.42V17.3328H36.265ZM5.57999 17.3328V20.6478H0.734985V17.3328H5.57999Z" fill="#002B42"/>
</svg>
