<svg width="58" height="58" viewBox="0 0 58 58" fill="none" xmlns="http://www.w3.org/2000/svg">
<path d="M29 0.25C13.25 0.25 0.25 13.25 0.25 29C0.25 35 2 40.5 5.25 45.25L2 55C1.75 55.5 2 56 2.25 56.25C2.75 56.5 3.25 56.75 3.75 56.5L13.75 53.25C18.25 56.25 23.75 57.75 29 57.75C44.75 57.75 57.75 44.75 57.75 29C57.75 13.25 44.75 0.25 29 0.25ZM46.25 40.75C45.5 43 42.5 45 40 45.5C39.5 45.5 39 45.75 38.25 45.75C36.25 45.75 33.75 45 29.75 43.5C24.75 41.5 19.75 37 15.75 31.25L15.5 31C14 29 11.75 25.5 11.75 21.75C11.75 17.5 14 15.25 14.75 14.25C15.75 13.25 17 12.75 18.5 12.75C18.75 12.75 19 12.75 19.25 12.75H19.5C20.75 12.75 21.5 13.25 22.25 14.75L22.75 15.75C23.5 17.5 24.5 20.25 24.75 20.75C25.25 21.75 25.25 22.5 24.75 23.25C24.5 23.75 24.25 24.25 23.75 24.75C23.5 25 23.25 25.25 23.25 25.5C23 25.75 22.75 26 22.5 26.25C22.5 26.5 22.5 26.5 22.5 26.5C23.25 27.75 24.75 30 26.75 31.75C29.5 34.25 31.5 35 32.5 35.5H32.75C33 35.5 33.25 35.75 33.25 35.5C33.75 35 34.25 34 35 33.25L35.25 33C36 32 37 31.75 37.5 31.75C37.75 31.75 38.25 31.75 38.5 32C38.75 32 39.25 32.25 44 34.75L44.5 35C45.25 35.25 45.75 35.5 46 36.25C47 36.75 46.75 39 46.25 40.75Z" fill="#395886"/>
</svg>
